<svg xmlns="http://www.w3.org/2000/svg" viewBox="0 0 426.042 100.31">
    <g data-name="Composant 2 – 1">
        <g data-name="Groupe 31">
            <path data-name="Rectangle 6" fill="#878787" d="M225.298 66.346h97.614v2.09h-97.614z"/>
            <g data-name="Groupe 9" fill="#e67b00">
                <path data-name="Tracé 12" d="M137.595 46.4a3.616 3.616 0 0 0 1.494-3.149c0-2.612-2.069-4.172-5.516-4.172h-11.4v15.31h11.676c3.633 0 5.838-1.7 5.838-4.447a3.746 3.746 0 0 0-2.092-3.542zm-2.139-2.851c0 1.131-.643 1.628-2.159 1.628h-7.493v-3.209h7.493c1.518 0 2.159.497 2.159 1.58zm-1.84 7.953h-7.813v-3.62h7.812c1.655 0 2.391.587 2.391 1.81s-.735 1.809-2.391 1.809z"/><path data-name="Tracé 13" d="M200.366 46.55c0-4.444-3.171-7.471-7.86-7.471h-4.091c-4.691 0-7.906 3.027-7.906 7.471a7.633 7.633 0 0 0 7.906 7.839h4.091a8.43 8.43 0 0 0 3.087-.564l.729.609h4.779l-2.922-2.3a7.816 7.816 0 0 0 2.187-5.584zm-7.86 4.951h-4.091c-2.436 0-4.139-1.963-4.139-4.768s1.7-4.766 4.139-4.766h4.091c2.39 0 4.091 1.963 4.091 4.766a5.235 5.235 0 0 1-1.09 3.359l-.75-.6h-4.412l2.346 2c-.061 0-.122.009-.185.009z"/><path data-name="Tracé 14" d="M388.277 46.55c0-4.444-3.169-7.471-7.858-7.471h-4.092c-4.69 0-7.906 3.027-7.906 7.471a7.633 7.633 0 0 0 7.906 7.839h4.092a8.424 8.424 0 0 0 3.085-.564l.729.609h4.78l-2.923-2.3a7.82 7.82 0 0 0 2.187-5.584zm-7.858 4.951h-4.092c-2.436 0-4.137-1.963-4.137-4.768s1.7-4.766 4.137-4.766h4.092c2.388 0 4.089 1.963 4.089 4.766a5.228 5.228 0 0 1-1.089 3.359l-.751-.6h-4.406l2.347 2c-.068 0-.128.009-.19.009z"/><path data-name="Tracé 15" d="M216.563 47.558c0 3.024-1.56 4.261-5.377 4.261s-5.379-1.237-5.379-4.261v-8.481h-3.63v8.847c0 4.492 3.171 6.92 9.01 6.92s8.965-2.429 8.965-6.92v-8.848h-3.587z"/><path data-name="Tracé 16" d="M404.472 47.558c0 3.024-1.562 4.261-5.378 4.261s-5.377-1.237-5.377-4.261v-8.481h-3.632v8.847c0 4.492 3.171 6.92 9.009 6.92s8.966-2.429 8.966-6.92v-8.848h-3.587z"/><path data-name="Tracé 17" d="M238.138 41.967v-2.888h-15.585v15.31h15.585v-2.888h-11.907v-3.482h10.573v-2.842h-10.573v-3.209z"/><path data-name="Tracé 18" d="M426.041 41.967v-2.888h-15.585v15.31h15.585v-2.888h-11.907v-3.482h10.573v-2.842h-10.573v-3.209z"/><path data-name="Tracé 19" d="M284.113 39.079v3.026h-6.7v12.283h-3.676V42.105h-6.7v-3.026z"/><path data-name="Tracé 20" d="M360.697 39.079v3.026h-6.7v12.283h-3.678V42.105h-6.7v-3.026z"/><path data-name="Tracé 21" d="M175.067 49.525l-10.342-10.359a2.074 2.074 0 0 0-1.47-.595 1.806 1.806 0 0 0-1.885 1.879v13.934h3.632V43.899l10.343 10.4a2.32 2.32 0 0 0 1.47.549 1.809 1.809 0 0 0 1.886-1.88V39.077h-3.633z"/><path data-name="Tracé 22" d="M337.838 49.525l-10.344-10.359a2.072 2.072 0 0 0-1.469-.595 1.808 1.808 0 0 0-1.887 1.879v13.934h3.63V43.899l10.345 10.4a2.323 2.323 0 0 0 1.471.549 1.81 1.81 0 0 0 1.886-1.88V39.077h-3.633z"/><path data-name="Tracé 23" d="M289.966 39.079h-3.678v15.31h15.032v-3.025h-11.354z"/><path data-name="Rectangle 7" d="M362.843 39.126h3.723v15.263h-3.723z"/><path data-name="Tracé 24" d="M149.82 38.621a2.127 2.127 0 0 0-1.747 1.009l-8.641 14.759h4.046l2.195-3.942h8.336l2.153 3.942h4.047l-8.64-14.759a2.128 2.128 0 0 0-1.749-1.009zm-2.505 8.937l2.509-4.46 2.547 4.46z"/><path data-name="Tracé 25" d="M260.21 38.621a2.132 2.132 0 0 0-1.747 1.009l-8.642 14.759h4.045l2.2-3.942h8.339l2.15 3.942h4.046l-8.64-14.759a2.134 2.134 0 0 0-1.751-1.009zm-2.507 8.937l2.51-4.459 2.545 4.459z"/><path data-name="Tracé 26" d="M312.594 38.621a2.131 2.131 0 0 0-1.747 1.009l-8.643 14.759h4.046l2.2-3.942h8.339l2.152 3.942h4.045l-8.641-14.759a2.134 2.134 0 0 0-1.751-1.009zm-2.5 8.937l2.508-4.459 2.545 4.459z"/></g><g data-name="Groupe 10" fill="#878787"><path data-name="Tracé 27" d="M231.784 79.226a3.631 3.631 0 0 0-3.92-3.724h-2.039a3.649 3.649 0 0 0-3.941 3.724 3.8 3.8 0 0 0 3.941 3.906h2.039a4.252 4.252 0 0 0 1.54-.28l.363.3h2.383l-1.458-1.146a3.883 3.883 0 0 0 1.092-2.78zm-3.92 2.468h-2.039a2.4 2.4 0 0 1 0-4.754h2.039a2.137 2.137 0 0 1 2.041 2.377 2.609 2.609 0 0 1-.544 1.674l-.373-.3h-2.2l1.169.995c-.03.003-.06.008-.093.008z"/><path data-name="Tracé 28" d="M377.65 79.732c0 1.509-.779 2.126-2.681 2.126s-2.682-.616-2.682-2.126v-4.23h-1.809v4.408c0 2.241 1.582 3.452 4.491 3.452s4.468-1.211 4.468-3.452v-4.408h-1.787z"/><path data-name="Tracé 29" d="M240.235 79.732c0 1.509-.779 2.126-2.681 2.126s-2.681-.616-2.681-2.126v-4.23h-1.81v4.408c0 2.241 1.582 3.452 4.491 3.452s4.468-1.211 4.468-3.452v-4.408h-1.787z"/><path data-name="Tracé 30" d="M164.324 79.732c0 1.509-.78 2.126-2.681 2.126s-2.681-.616-2.681-2.126v-4.23h-1.806v4.408c0 2.241 1.582 3.452 4.492 3.452s4.467-1.211 4.467-3.452v-4.408h-1.786z"/><path data-name="Tracé 31" d="M333.335 76.942v-1.44h-7.767v7.63h7.767v-1.438h-5.934v-1.739h5.268v-1.417h-5.268v-1.6z"/><path data-name="Tracé 32" d="M422.052 76.942v-1.44h-7.768v7.63h7.768v-1.438h-5.936v-1.739h5.27v-1.417h-5.27v-1.6z"/><path data-name="Tracé 33" d="M274.159 76.942v-1.44h-7.767v7.63h7.767v-1.438h-5.933v-1.739h5.271v-1.417h-5.271v-1.6z"/><path data-name="Tracé 34" d="M251.366 76.942v-1.44H243.6v7.63h7.766v-1.438h-5.934v-1.739h5.269v-1.417h-5.269v-1.6z"/><path data-name="Tracé 35" d="M185.328 76.942v-1.44h-7.769v7.63h7.769v-1.438h-5.936v-1.739h5.27v-1.417h-5.27v-1.6z"/><path data-name="Tracé 36" d="M355.398 75.502h-2.04a3.649 3.649 0 0 0-3.94 3.724 3.8 3.8 0 0 0 3.94 3.906h2.04a3.787 3.787 0 0 0 3.92-3.906 3.631 3.631 0 0 0-3.92-3.724zm0 6.192h-2.04a2.4 2.4 0 0 1 0-4.753h2.04a2.4 2.4 0 0 1 0 4.753z"/><path data-name="Tracé 37" d="M151.955 75.502h-2.041a3.649 3.649 0 0 0-3.94 3.724 3.8 3.8 0 0 0 3.94 3.906h2.041a3.785 3.785 0 0 0 3.916-3.906 3.63 3.63 0 0 0-3.916-3.724zm0 6.192h-2.041a2.4 2.4 0 0 1 0-4.753h2.041a2.4 2.4 0 0 1 0 4.753z"/><path data-name="Tracé 38" d="M304.347 78.289c0-1.759-1.306-2.787-3.527-2.787h-5.246v7.63h1.809v-1.988h3.068l1.927 1.988h2.291l-2.188-2.2a2.652 2.652 0 0 0 1.866-2.643zm-6.965-1.348h3.344c1.215 0 1.789.449 1.789 1.394 0 .919-.573 1.393-1.789 1.393h-3.344z"/><path data-name="Tracé 39" d="M412.823 78.289c0-1.759-1.306-2.787-3.529-2.787h-5.247v7.63h1.81v-1.988h3.068l1.928 1.988h2.29l-2.187-2.2a2.651 2.651 0 0 0 1.867-2.643zm-6.966-1.348h3.345c1.215 0 1.787.449 1.787 1.394 0 .919-.572 1.393-1.787 1.393h-3.345z"/><path data-name="Tracé 40" d="M144.818 78.289c0-1.759-1.307-2.787-3.529-2.787h-5.248v7.63h1.811v-1.988h3.068l1.927 1.988h2.291l-2.188-2.2a2.651 2.651 0 0 0 1.868-2.643zm-6.966-1.348h3.345c1.214 0 1.786.449 1.786 1.394 0 .919-.572 1.393-1.786 1.393h-3.345z"/><path data-name="Tracé 41" d="M344.73 75.502h-5.062v7.63h1.809v-2.149h3.253c2.268 0 3.575-1 3.575-2.739s-1.307-2.742-3.575-2.742zm-.068 4.044h-3.185v-2.6h3.185c1.213 0 1.787.426 1.787 1.3s-.549 1.3-1.787 1.3z"/><path data-name="Tracé 42" d="M365.684 75.502h-5.063v7.63h1.808v-2.149h3.255c2.268 0 3.574-1 3.574-2.739s-1.306-2.742-3.574-2.742zm-.07 4.044h-3.185v-2.6h3.185c1.214 0 1.788.426 1.788 1.3s-.549 1.3-1.788 1.3z"/><path data-name="Tracé 43" d="M172.75 75.502h-5.064v7.63h1.81v-2.148h3.254c2.269 0 3.573-1 3.573-2.741s-1.304-2.741-3.573-2.741zm-.069 4.044h-3.185v-2.6h3.185c1.214 0 1.787.426 1.787 1.3s-.551 1.3-1.787 1.3z"/><path data-name="Tracé 44" d="M294.126 75.502v1.508h-3.339v6.122h-1.834V77.01h-3.337v-1.508z"/><path data-name="Tracé 45" d="M282.355 80.709l-5.152-5.16a1.036 1.036 0 0 0-.736-.3.9.9 0 0 0-.938.937v6.945h1.811v-5.228l5.154 5.185a1.166 1.166 0 0 0 .734.274.9.9 0 0 0 .938-.937v-6.922h-1.811z"/><path data-name="Tracé 46" d="M218.795 80.709l-5.157-5.161a1.024 1.024 0 0 0-.732-.3.9.9 0 0 0-.938.937v6.945h1.81v-5.227l5.153 5.183a1.158 1.158 0 0 0 .734.276.9.9 0 0 0 .938-.938v-6.921h-1.809z"/><path data-name="Tracé 47" d="M264.818 81.694h-4.047a2.4 2.4 0 0 1 0-4.753h4.051v-1.439h-4.051a3.65 3.65 0 0 0-3.942 3.724 3.805 3.805 0 0 0 3.942 3.906h4.051z"/><path data-name="Tracé 48" d="M382.845 75.502h-1.828v7.63h7.492v-1.508h-5.661z"/><path data-name="Tracé 49" d="M318.716 75.502h-1.831v7.63h7.491v-1.508h-5.661z"/><path data-name="Rectangle 8" d="M400.632 75.524h1.857v7.608h-1.857z"/><path data-name="Tracé 50" d="M205.831 75.274a1.068 1.068 0 0 0-.873.5l-4.306 7.357h2.017l1.1-1.966h4.154l1.074 1.966h2.017l-4.311-7.357a1.056 1.056 0 0 0-.872-.5zm-1.249 4.455l1.249-2.223 1.27 2.223z"/><path data-name="Tracé 51" d="M310.739 75.274a1.055 1.055 0 0 0-.869.5l-4.309 7.357h2.016l1.1-1.966h4.156l1.073 1.966h2.017l-4.308-7.357a1.063 1.063 0 0 0-.876-.5zm-1.249 4.455l1.252-2.223 1.267 2.223z"/><path data-name="Tracé 52" d="M394.497 75.274a1.063 1.063 0 0 0-.871.5l-4.308 7.357h2.016l1.094-1.966h4.157l1.073 1.966h2.019l-4.308-7.357a1.058 1.058 0 0 0-.872-.5zm-1.247 4.455l1.25-2.223 1.267 2.223z"/><path data-name="Tracé 53" d="M132.941 79.317v2.378h-2.84a2.4 2.4 0 0 1 0-4.754h4.31v-1.439h-4.31a3.649 3.649 0 0 0-3.941 3.724 3.8 3.8 0 0 0 3.941 3.906h4.7v-3.816z"/><path data-name="Tracé 54" d="M199.343 79.15a1.806 1.806 0 0 0 .745-1.568c0-1.3-1.031-2.08-2.751-2.08h-5.681v7.63h5.818c1.81 0 2.909-.845 2.909-2.216a1.864 1.864 0 0 0-1.04-1.766zm-1.065-1.42c0 .563-.322.808-1.079.808h-3.734v-1.6h3.734c.761.003 1.083.251 1.083.794zm-.918 3.964h-3.895v-1.8h3.895c.825 0 1.189.293 1.189.9s-.36.9-1.185.9z"/></g></g><g data-name="Groupe 32" fill-rule="evenodd"><g data-name="Groupe 12" fill="#622800"><path data-name="Tracé 55" d="M80.907 64.935c-.817 2.219-2.04 5.246-2.732 7.612a7.738 7.738 0 0 0-1.458 4.881c-.059 1.357-1.8 4.489-5.6 14.7a1.482 1.482 0 0 0-.037.9 6.963 6.963 0 0 0 .63 1.4.4.4 0 0 0 .267.176c.262.047.789.138.9.155a2.648 2.648 0 0 1 2.327 2.088 2.877 2.877 0 0 1-.083 1.007.265.265 0 0 0 .009.1c.062.25.325 1.28.507 2.1a.331.331 0 0 0 .311.251h5.342a.455.455 0 0 0 .346-.7 113.53 113.53 0 0 1-2.118-3.316.346.346 0 0 0-.14-.13 9.529 9.529 0 0 1-3.217-2.493 3.036 3.036 0 0 1-.549-2.5c.406-2.832 4.594-10.945 5.569-11.689a5.1 5.1 0 0 0 2-3 10.2 10.2 0 0 0 .262-1.905c.209-1.117 3.118-4.863 4.543-6.885-1.961-.682-6.557-2.381-7.079-2.752z"/><path data-name="Tracé 56" d="M106.13 13.91a4.634 4.634 0 0 0-.235-.225.851.851 0 0 1-.34-.615c-.2-.842-.343-1-.572-1.1a1.9 1.9 0 0 0-1.038-.313 5.772 5.772 0 0 1-2.708-.271 34.088 34.088 0 0 1-6.524-3.231 2.618 2.618 0 0 0 .69-3.751.821.821 0 0 1-.631.869 2.571 2.571 0 0 0-2.15-2.849 1.664 1.664 0 0 1 .465 2.007 2.265 2.265 0 0 0-1.642-1.463 1.737 1.737 0 0 1-2.018 2.509c.58-1.546.216-3.618-.335-5.429a.055.055 0 0 0-.1-.008c-.754 2.016-2.135 2.4-3.314 5.422-.737-.473-3-2.275-5.739-1.129a2.832 2.832 0 0 1 1.932 1.508c-2.79-.424-5.035-.4-6.915 1.457a3.381 3.381 0 0 1 3.127.909c-1.279.816-2.683 1.1-5.17 1.1a6.648 6.648 0 0 0 3.289 1.945c-3.788.053-3.686 1.695-6.193 2.79 2.591-.137 2.655.822 4.45.929-2.985.4-3.17 1.661-6.53 1.213a6.2 6.2 0 0 0 3.5 2.641c-1.895.318-3.206 1.524-5.27 1.209.908 1.5 3.053 2.4 4.958 2.529a5.282 5.282 0 0 1-3.14 1.058 3.633 3.633 0 0 0 2.256.961 5.307 5.307 0 0 1-3.531 1.028 4.612 4.612 0 0 0 4.57 2.2c-.493 1.508-3.3 1.316-5.323.527a5.8 5.8 0 0 0 5.76 3.855c-1.437.876-2.957.92-5 .7a6.278 6.278 0 0 0 3.4 3.289 62.41 62.41 0 0 1-8.628 1.638 67.765 67.765 0 0 1-14.536-1.335 21.071 21.071 0 0 0-7.02.008 15.455 15.455 0 0 0-7.081 3.2 4.88 4.88 0 0 1-2.154-1.155c-2.058-1.825-4.585-3.457-7.412-3.576a11.742 11.742 0 0 0-8.507 3.842 20.508 20.508 0 0 0-4.522 7.929 30.233 30.233 0 0 0-.924 3.534c-.122.616-.421 2.668-.521 3.7a6.279 6.279 0 0 0 1.79-1.912c-1.032 4.019-1.2 8.431-4.7 11.313 2.395.213 3.883-2.032 4.626-3.641C8.714 70.115 1.391 72.799-.005 72.95a11.488 11.488 0 0 0 11.025-5.548 15.392 15.392 0 0 1-5.065 7.662c5.549-.157 8.9-10.537 9.1-11.177.015.678.24 2.286-1.321 7.052 4.746-3.638 3.929-12.59 6.481-22.066-.071.93-.031 5.585 1.262 8.195.4-9.021 2.081-12.776 2.435-13.338 1.44-2.268 4.484-3.508 6.359-1.113a12.3 12.3 0 0 0-1.782 4.9 16.325 16.325 0 0 0 3.9 12.239 36.786 36.786 0 0 0 3.338 3.431c1.712 1.581 3.322 2.625 4.2 3.368 2.306 1.957 2.265 3.745 1.39 4.646a14.045 14.045 0 0 1-3.049 2.29c-.241-.123-.478-.248-.726-.373a.229.229 0 0 1-.052-.369 39.006 39.006 0 0 1 3.082-2.525.644.644 0 0 0 .183-.491 3.646 3.646 0 0 0-1.55-2.329c-.278-.239-.661-.522-1.106-.856a40.391 40.391 0 0 1-3.445-2.672c-1.709 5.89-4.887 8.456-5.665 9a.357.357 0 0 0-.135.365c.068.414.287 1.273.427 1.941a.59.59 0 0 0 .488.5c.884.153 1.9.3 3.018.509a13.672 13.672 0 0 0-.35 2.088.532.532 0 0 0 .161.434c.96.914 2.739 2.4 3.378 3.158 2.033 2.414 3.4 3.459 6.48 12.207.129.383.631.44.923.487 2.907.462 2.981 2.843 2.7 3.454a.338.338 0 0 0-.023.189 13.186 13.186 0 0 0 .425 1.89.289.289 0 0 0 .279.206h5.842a.284.284 0 0 0 .241-.427 40.811 40.811 0 0 0-2.311-3.616.349.349 0 0 0-.081-.086c-.615-.432-2.291-.583-3.063-1.979-.388-.7-.156-.986-.111-1.616a2.409 2.409 0 0 0-.421-1.35c-3.8-4.34-6.515-10.636-7.173-12.065a.323.323 0 0 1 .084-.434l.167-.1a28.09 28.09 0 0 1 7.288 5.7 1.159 1.159 0 0 0 1.135.2 2.689 2.689 0 0 1 2.133.024c.914.547.788 1.691.141 2.643a.4.4 0 0 0-.07.27c.084.8.142 1.6.166 1.941a.308.308 0 0 0 .17.258l5.132 2.657a.308.308 0 0 0 .444-.315c-.392-2.966-.635-3.98-.7-4.414a.38.38 0 0 0-.139-.248 3.321 3.321 0 0 1-1.49-2.049c-.151-.681-.27-2.195-.952-2.73a70.58 70.58 0 0 0-9.6-6.245c.492-.327.9-.6 1.154-.781a21.392 21.392 0 0 0 7.71-8.6 14.131 14.131 0 0 0 1.2-6.908 10.681 10.681 0 0 0-1.636-4.091c-.053-.072.042-.225.228-.089 1.371 1.005 2.643 4.243 2.869 4.923 5.492 1.923 16.195 2.935 22.993 1.738h.052a21.671 21.671 0 0 1-1.223-8.281c.028-.371.353-.314.372-.113a20.986 20.986 0 0 0 2.837 9.19 12.786 12.786 0 0 0 2.2 1.139c7.485 3.211 12.048 5.091 16.8 7.087a.605.605 0 0 1 .425.615 7.038 7.038 0 0 1-.034 1.4 1.245 1.245 0 0 1-.324.685 62.285 62.285 0 0 1-8.569 8.5 1.283 1.283 0 0 0-.615 1.155c.128.8.225 1.266.254 1.679a.565.565 0 0 1-.679.646c-.521-.139-1.445-.473-2.427-.745a.436.436 0 0 0-.5.223l-2.536 5.125a.323.323 0 0 0 .327.468c1.2-.149 2.807-.392 3.587-.57 1.472-.337 1.352-1.758 4.2-2.273a1.634 1.634 0 0 0 1.367-.735c.355-.514 1.211-2.124 1.858-3.18.75-1.226 1.227-1.924 1.569-2.379 1.8-2.369 2.094-2.635 6.875-7.78a1.528 1.528 0 0 0 .241-.684c.109-.768.291-2.063.412-3.167a1.789 1.789 0 0 0-.424-1.2 9.225 9.225 0 0 0-.97-1.153c-4.223-2.632-8.093-8.138-8.093-8.138 6.92-7.082 3.743-12.249.754-19.193-2.121-12.024-6.334-14.79-6.011-21.7 2.41.613 4.254-.677 6-1.142l4.32-.122a7.887 7.887 0 0 0 1.236 1.059 1.453 1.453 0 0 0 .742.092 5.858 5.858 0 0 0 1.594-.594l.744-.149a.293.293 0 0 0 .2-.137c.154-.243.516-.82.684-1.124a.191.191 0 0 0-.13-.28c-.563-.114-1.818-.32-2.2-.407-.341-.078-.226-.726.067-.713.442.017 1.993.136 2.456.181a.174.174 0 0 0 .176-.1l.526-1.076a.627.627 0 0 0-.12-.714zM92.375 9.843a1.694 1.694 0 0 0-.95.277 2.878 2.878 0 0 0 .926.886 2.62 2.62 0 0 1-2-1.051 4.657 4.657 0 0 1 2.138-.952c1.056-.017 1.218 1.63 1.218 1.63s-.845-.811-1.332-.791z"/></g><path data-name="Tracé 57" d="M46.552 6.695a3.168 3.168 0 0 0 .681-.319c.174-.072.319-.211.49-.271a.553.553 0 0 0 .239-.128c.124-.163.3.008.428.045.152.036.362.132.5-.049a.982.982 0 0 1 .407-.339c0 .407.439-.017.626-.045.249-.04.253.209.5.093a.631.631 0 0 0 .4-.46.267.267 0 0 1 .2-.074 3.148 3.148 0 0 0 .685.028 6.587 6.587 0 0 0 1.191-.5 5.67 5.67 0 0 1 1.256-.147 31.6 31.6 0 0 1 5.306-.376c.389.042.776-.049 1.167.016a3.287 3.287 0 0 0 1.246-.07 4.512 4.512 0 0 1 1.8-.157 1.482 1.482 0 0 1 .586.234c.123.035.2.159.312.24s.191.211.309.263a2.909 2.909 0 0 0 .346.152 2.275 2.275 0 0 0 .554.095c.161.058.563-.188.395-.363a4.574 4.574 0 0 0 .938.232 1.667 1.667 0 0 1 .424.068 1.015 1.015 0 0 1 .332.214 1.758 1.758 0 0 1 .428.779 2.56 2.56 0 0 1 .057.971.939.939 0 0 1-.713.889 6.413 6.413 0 0 1-2.648.034 6.648 6.648 0 0 0-1.21-.288c-.444-.066-.9-.072-1.34-.095s-.863.038-1.29.049a11.584 11.584 0 0 1-1.3-.046c-.657-.069-1.314-.171-1.975-.225-.555-.038-1.165.018-1.721.031-.942.035-2.011-.105-2.951-.05-.744.044-4.1-.122-4.241-.122-.05 0-.431.012-.523.006-.168-.008-1.2.062-1.213.062-.112 0-.391.02-.468-.161a1.346 1.346 0 0 1-.21-.216z" fill="#e67b00"/><path data-name="Tracé 58" d="M29.145 16.031c0 .131-.3-.2-.33-.271a2.04 2.04 0 0 0 .614-.3c.209-.1.43-.193.646-.28a2.473 2.473 0 0 0 .448-.279c.146-.1.322-.133.467-.231a.449.449 0 0 1 .479-.1c.182.057.36.14.546.181.473.1.657-.484 1.055-.664.01.556.5.153.745.026a.981.981 0 0 1 .43-.154c.128.012.172.08.282.17.154.119.124.131.321.031a1.787 1.787 0 0 0 .318-.187.88.88 0 0 0 .3-.367c.073-.183.1-.324.361-.3a5.426 5.426 0 0 0 1.083.04 12.3 12.3 0 0 0 1.864-.794 8.35 8.35 0 0 1 1.981-.246c2.79-.244 5.551-.89 8.353-.68.615.047 1.227-.1 1.845 0a6.257 6.257 0 0 0 2.195-.237 10.267 10.267 0 0 1 2.276-.286 2.806 2.806 0 0 1 1.81.711 3.14 3.14 0 0 0 .806.544 3.177 3.177 0 0 0 1.094.17c.107.008.414-.018.453-.018.075 0 .311-.244.252-.34-.052-.059.107-.116.171-.089a3.371 3.371 0 0 0 .781.2c.3.067.582.031.872.077a1.889 1.889 0 0 1 .687.3 2.415 2.415 0 0 1 .841 1.306 3.367 3.367 0 0 1 .037 1.4 1.582 1.582 0 0 1-1.306 1.354 10.033 10.033 0 0 1-4.147.047 12.254 12.254 0 0 0-1.92-.423c-.7-.083-1.435-.027-2.139-.053-.674-.02-1.357.084-2.034.1a17.659 17.659 0 0 1-2.046-.043c-1.039-.095-2.08-.234-3.119-.3a23.956 23.956 0 0 0-2.642.038c-1.486.063-2.811 0-4.3.1a30.926 30.926 0 0 1-3.442-.01c-.657-.032-1.332.024-1.991.023-.471 0-.941-.02-1.411-.017-.568 0-1.133.018-1.7.028a5.886 5.886 0 0 0-1.108.04c-.242.055-.644.112-.777-.179" fill="#878787"/><path data-name="Tracé 59" d="M17.096 24.507c.149-.066.311-.173.478-.253a3.023 3.023 0 0 1 .464-.166c.166-.055.333-.109.5-.161.141-.054.4-.077.516-.217a1.139 1.139 0 0 1 .293-.13 1.35 1.35 0 0 0 .469-.191c.251-.242.682 0 .95.063.3.059.623.216.89-.051a2.157 2.157 0 0 1 .855-.543c0 .172.135.408.242.32a.793.793 0 0 1 .373-.133 1.87 1.87 0 0 1 .892-.243c.071.132.244.113.315.252.049.083.293-.036.371-.07a1.29 1.29 0 0 0 .773-.652.793.793 0 0 1 .439-.092 8.333 8.333 0 0 0 1.361.06 17.235 17.235 0 0 0 2.365-.845 13.53 13.53 0 0 1 2.5-.191c3.522-.184 7.009-.747 10.535-.484.774.064 1.542-.066 2.32.042a8.746 8.746 0 0 0 2.476-.089c.542-.072 1.071-.162 1.613-.185a10.733 10.733 0 0 1 1.963-.02 3.942 3.942 0 0 1 1.681.677 4.244 4.244 0 0 0 1.636.739 3.388 3.388 0 0 0 1.385.05.492.492 0 0 0 .27-.146.337.337 0 0 0 .074-.293c-.009-.019 0-.041.009-.038a10.923 10.923 0 0 0 1.139.254c.208.041.422.072.629.094a3.587 3.587 0 0 1 .679.068 2.73 2.73 0 0 1 .749.294 2.586 2.586 0 0 1 .935 1.257 3 3 0 0 1 .116 1.461 1.574 1.574 0 0 1-1.419 1.323 16.415 16.415 0 0 1-5.254.015 18.037 18.037 0 0 0-2.41-.461c-.886-.1-1.773-.124-2.657-.161-.85-.031-1.711.046-2.563.054s-1.725-.018-2.577-.088c-1.312-.118-2.615-.279-3.927-.373-1.1-.071-2.214-.139-3.321-.118-1.87.028-3.741-.061-5.614.008-1.469.047-7.545-.08-7.9-.11a24.3 24.3 0 0 0-3.037-.033c-.4.009-.8.046-1.2.067-.3.015-.876.092-1.053-.22a2.415 2.415 0 0 1-.323-.341z" fill="#e67b00"/></g></g></svg>