<svg xmlns="http://www.w3.org/2000/svg" viewBox="0 0 245.572 55.761"><g data-name="Composant 1 – 1"><g data-name="Groupe 11"><path data-name="Rectangle 6" fill="#878787" d="M179.33 46.996V12.845h1.79v34.151z"/><g data-name="Groupe 9" fill="#e67b00"><path data-name="Tracé 12" d="M8.574 25.165a2.01 2.01 0 0 0 .83-1.75c0-1.452-1.15-2.319-3.066-2.319H0v8.51h6.49c2.019 0 3.245-.943 3.245-2.472a2.082 2.082 0 0 0-1.161-1.969zM7.385 23.58c0 .629-.358.905-1.2.905H2.02v-1.784h4.165c.842.001 1.2.277 1.2.879zm-1.023 4.421H2.019v-2.012h4.343c.92 0 1.329.326 1.329 1.006s-.409 1.006-1.329 1.006z"/><path data-name="Tracé 13" d="M43.467 25.249a4.049 4.049 0 0 0-4.369-4.153h-2.274a4.069 4.069 0 0 0-4.4 4.153 4.243 4.243 0 0 0 4.4 4.357h2.274a4.686 4.686 0 0 0 1.716-.314l.405.339h2.655l-1.624-1.279a4.345 4.345 0 0 0 1.217-3.103zm-4.369 2.752h-2.274a2.676 2.676 0 0 1 0-5.3h2.274a2.381 2.381 0 0 1 2.274 2.649 2.91 2.91 0 0 1-.606 1.867l-.417-.334h-2.452l1.3 1.111c-.03.002-.064.007-.099.007z"/><path data-name="Tracé 14" d="M147.927 25.249a4.048 4.048 0 0 0-4.368-4.153h-2.274a4.07 4.07 0 0 0-4.4 4.153 4.243 4.243 0 0 0 4.4 4.357h2.274a4.683 4.683 0 0 0 1.715-.314l.405.339h2.657l-1.625-1.279a4.347 4.347 0 0 0 1.216-3.103zm-4.368 2.752h-2.274a2.676 2.676 0 0 1 0-5.3h2.274a2.382 2.382 0 0 1 2.268 2.65 2.906 2.906 0 0 1-.605 1.867l-.417-.334h-2.452l1.3 1.111c-.026.001-.063.006-.097.006z"/><path data-name="Tracé 15" d="M52.472 25.809c0 1.681-.867 2.369-2.989 2.369s-2.99-.688-2.99-2.369v-4.714h-2.018v4.919c0 2.5 1.763 3.847 5.008 3.847s4.983-1.35 4.983-3.847v-4.919h-1.994z"/><path data-name="Tracé 16" d="M156.927 25.809c0 1.681-.869 2.369-2.99 2.369s-2.989-.688-2.989-2.369v-4.714h-2.019v4.919c0 2.5 1.763 3.847 5.008 3.847s4.984-1.35 4.984-3.847v-4.919h-1.994z"/><path data-name="Tracé 17" d="M64.464 22.702v-1.606h-8.663v8.51h8.663v-1.605h-6.619v-1.936h5.877v-1.58h-5.877v-1.784z"/><path data-name="Tracé 18" d="M168.915 22.702v-1.606h-8.663v8.51h8.663v-1.605h-6.619v-1.936h5.877v-1.58h-5.877v-1.784z"/><path data-name="Tracé 19" d="M90.021 21.096v1.682h-3.724v6.828h-2.043v-6.828H80.53v-1.682z"/><path data-name="Tracé 20" d="M132.59 21.096v1.682h-3.724v6.828h-2.044v-6.828h-3.724v-1.682z"/><path data-name="Tracé 21" d="M29.404 26.907l-5.749-5.757a1.153 1.153 0 0 0-.817-.331 1 1 0 0 0-1.048 1.045v7.743h2.019v-5.83l5.749 5.78a1.289 1.289 0 0 0 .817.305 1 1 0 0 0 1.048-1.045v-7.72h-2.019z"/><path data-name="Tracé 22" d="M119.885 26.907l-5.75-5.757a1.152 1.152 0 0 0-.816-.331 1 1 0 0 0-1.049 1.045v7.743h2.018v-5.83l5.751 5.78a1.291 1.291 0 0 0 .818.305 1.006 1.006 0 0 0 1.048-1.045v-7.72h-2.019z"/><path data-name="Tracé 23" d="M93.275 21.096h-2.044v8.51h8.356v-1.682h-6.312z"/><path data-name="Rectangle 7" d="M133.786 21.122h2.07v8.485h-2.07z"/><path data-name="Tracé 24" d="M15.372 20.841a1.183 1.183 0 0 0-.971.561l-4.8 8.2h2.249l1.22-2.191h4.635l1.2 2.191h2.248l-4.8-8.2a1.183 1.183 0 0 0-.981-.561zm-1.393 4.968l1.395-2.479 1.416 2.479z"/><path data-name="Tracé 25" d="M76.734 20.841a1.185 1.185 0 0 0-.971.561l-4.8 8.2h2.249l1.221-2.191h4.636l1.2 2.191h2.249l-4.8-8.2a1.186 1.186 0 0 0-.984-.561zm-1.393 4.968l1.4-2.479 1.415 2.479z"/><path data-name="Tracé 26" d="M105.853 20.841a1.184 1.184 0 0 0-.971.561l-4.8 8.2h2.249l1.221-2.191h4.634l1.2 2.191h2.249l-4.8-8.2a1.186 1.186 0 0 0-.982-.561zm-1.392 4.968l1.394-2.479 1.415 2.479z"/></g><g data-name="Groupe 10" fill="#878787"><path data-name="Tracé 27" d="M63.446 35.87a2.018 2.018 0 0 0-2.179-2.07h-1.133a2.029 2.029 0 0 0-2.191 2.07 2.115 2.115 0 0 0 2.191 2.171h1.133a2.365 2.365 0 0 0 .856-.156l.2.168h1.325l-.811-.637a2.159 2.159 0 0 0 .609-1.546zm-2.179 1.372h-1.133a1.335 1.335 0 0 1 0-2.643h1.133a1.188 1.188 0 0 1 1.134 1.321 1.451 1.451 0 0 1-.3.931l-.207-.167h-1.223l.65.553c-.019.002-.036.005-.054.005z"/><path data-name="Tracé 28" d="M144.531 36.149c0 .839-.433 1.182-1.49 1.182s-1.491-.342-1.491-1.182V33.8h-1.006v2.451c0 1.246.879 1.919 2.5 1.919s2.484-.673 2.484-1.919V33.8h-.994z"/><path data-name="Tracé 29" d="M68.144 36.149c0 .839-.433 1.182-1.49 1.182s-1.49-.342-1.49-1.182V33.8h-1.006v2.451c0 1.246.879 1.919 2.5 1.919s2.484-.673 2.484-1.919V33.8h-.994z"/><path data-name="Tracé 30" d="M25.945 36.149c0 .839-.434 1.182-1.49 1.182s-1.49-.342-1.49-1.182V33.8h-1.002v2.451c0 1.246.879 1.919 2.5 1.919s2.483-.673 2.483-1.919V33.8h-.993z"/><path data-name="Tracé 31" d="M119.896 34.6v-.8h-4.318v4.242h4.318v-.8h-3.3v-.967h2.927v-.787h-2.928V34.6z"/><path data-name="Tracé 32" d="M169.212 34.6v-.8h-4.318v4.242h4.318v-.8h-3.3v-.967h2.929v-.787h-2.929V34.6z"/><path data-name="Tracé 33" d="M87.001 34.6v-.8h-4.318v4.242h4.318v-.8h-3.3v-.967h2.93v-.787h-2.93V34.6z"/><path data-name="Tracé 34" d="M74.33 34.6v-.8h-4.317v4.242h4.317v-.8h-3.3v-.967h2.927v-.787h-2.929V34.6z"/><path data-name="Tracé 35" d="M37.622 34.6v-.8h-4.318v4.242h4.318v-.8h-3.3v-.967h2.929v-.787h-2.929V34.6z"/><path data-name="Tracé 36" d="M132.161 33.8h-1.134a2.029 2.029 0 0 0-2.19 2.07 2.115 2.115 0 0 0 2.19 2.171h1.134a2.1 2.1 0 0 0 2.179-2.171 2.019 2.019 0 0 0-2.179-2.07zm0 3.442h-1.134a1.335 1.335 0 0 1 0-2.642h1.134a1.334 1.334 0 0 1 0 2.642z"/><path data-name="Tracé 37" d="M19.07 33.8h-1.134a2.028 2.028 0 0 0-2.19 2.07 2.115 2.115 0 0 0 2.19 2.171h1.134a2.1 2.1 0 0 0 2.177-2.171 2.018 2.018 0 0 0-2.177-2.07zm0 3.442h-1.134a1.334 1.334 0 0 1 0-2.642h1.134a1.334 1.334 0 0 1 0 2.642z"/><path data-name="Tracé 38" d="M103.784 35.349c0-.978-.726-1.549-1.961-1.549h-2.916v4.242h1.006v-1.1h1.706l1.071 1.1h1.273l-1.216-1.223a1.474 1.474 0 0 0 1.037-1.47zm-3.872-.749h1.859c.676 0 .994.25.994.775s-.319.774-.994.774h-1.859z"/><path data-name="Tracé 39" d="M164.082 35.349c0-.978-.726-1.549-1.962-1.549h-2.917v4.242h1.006v-1.1h1.706l1.072 1.1h1.273l-1.215-1.223a1.474 1.474 0 0 0 1.037-1.47zm-3.872-.749h1.86c.676 0 .994.25.994.775s-.318.774-.994.774h-1.86z"/><path data-name="Tracé 40" d="M15.105 35.349c0-.978-.727-1.549-1.962-1.549h-2.917v4.242h1.007v-1.1h1.706l1.071 1.1h1.273l-1.216-1.223a1.473 1.473 0 0 0 1.038-1.47zm-3.872-.749h1.86c.675 0 .993.25.993.775s-.318.774-.993.774h-1.86z"/><path data-name="Tracé 41" d="M126.23 33.8h-2.814v4.242h1.006v-1.195h1.808c1.261 0 1.987-.558 1.987-1.523s-.728-1.524-1.987-1.524zm-.038 2.248h-1.77V34.6h1.77c.674 0 .994.237.994.724s-.306.724-.997.724z"/><path data-name="Tracé 42" d="M137.878 33.8h-2.814v4.242h1v-1.195h1.809c1.261 0 1.987-.558 1.987-1.523s-.721-1.524-1.982-1.524zm-.039 2.248h-1.771V34.6h1.771c.675 0 .994.237.994.724s-.305.724-.994.724z"/><path data-name="Tracé 43" d="M30.63 33.8h-2.815v4.242h1.006v-1.194h1.809c1.261 0 1.986-.558 1.986-1.523S31.891 33.8 30.63 33.8zm-.038 2.248h-1.77V34.6h1.77c.675 0 .994.237.994.724s-.307.724-.994.724z"/><path data-name="Tracé 44" d="M98.101 33.8v.838h-1.856v3.4h-1.019v-3.4h-1.855V33.8z"/><path data-name="Tracé 45" d="M91.557 36.694l-2.864-2.868a.576.576 0 0 0-.409-.166.5.5 0 0 0-.522.521v3.861h1.003v-2.907l2.865 2.882a.649.649 0 0 0 .408.152.5.5 0 0 0 .522-.521V33.8h-1.007z"/><path data-name="Tracé 46" d="M56.225 36.694l-2.867-2.869a.569.569 0 0 0-.407-.165.5.5 0 0 0-.522.521v3.861h1.006v-2.907l2.865 2.881a.644.644 0 0 0 .408.153.5.5 0 0 0 .522-.522v-3.848h-1.006z"/><path data-name="Tracé 47" d="M81.811 37.242h-2.252a1.334 1.334 0 0 1 0-2.642h2.252v-.8h-2.252a2.029 2.029 0 0 0-2.192 2.07 2.115 2.115 0 0 0 2.192 2.171h2.252z"/><path data-name="Tracé 48" d="M147.418 33.8h-1.015v4.242h4.165v-.838h-3.147z"/><path data-name="Tracé 49" d="M111.77 33.8h-1.018v4.242h4.164v-.838h-3.147z"/><path data-name="Rectangle 8" d="M157.306 33.812h1.032v4.229h-1.032z"/><path data-name="Tracé 50" d="M49.019 33.673a.594.594 0 0 0-.485.279l-2.394 4.09h1.121l.61-1.093h2.309l.6 1.093h1.121l-2.4-4.09a.587.587 0 0 0-.482-.279zm-.694 2.476l.694-1.236.706 1.236z"/><path data-name="Tracé 51" d="M107.336 33.673a.586.586 0 0 0-.483.279l-2.4 4.09h1.121l.609-1.093h2.31l.6 1.093h1.121l-2.395-4.09a.591.591 0 0 0-.483-.279zm-.695 2.476l.7-1.236.7 1.236z"/><path data-name="Tracé 52" d="M153.895 33.673a.591.591 0 0 0-.484.279l-2.395 4.09h1.121l.608-1.093h2.311l.6 1.093h1.119l-2.395-4.09a.588.588 0 0 0-.485-.279zm-.693 2.476l.7-1.236.7 1.236z"/><path data-name="Tracé 53" d="M8.501 35.921v1.322H6.922a1.335 1.335 0 0 1 0-2.643h2.4v-.8h-2.4a2.028 2.028 0 0 0-2.191 2.07 2.115 2.115 0 0 0 2.191 2.171h2.611V35.92z"/><path data-name="Tracé 54" d="M45.414 35.83a1 1 0 0 0 .414-.872c0-.725-.573-1.156-1.529-1.156h-3.158v4.242h3.234c1.006 0 1.617-.47 1.617-1.232a1.036 1.036 0 0 0-.578-.982zm-.592-.789c0 .313-.179.449-.6.449h-2.076v-.888h2.078c.419-.002.6.136.6.437zm-.51 2.2h-2.165v-1h2.165c.459 0 .661.163.661.5s-.202.501-.661.501z"/></g></g><g data-name="Groupe 13" fill-rule="evenodd"><g data-name="Groupe 12" fill="#622800"><path data-name="Tracé 55" d="M231.447 36.096c-.454 1.234-1.134 2.916-1.518 4.232a4.3 4.3 0 0 0-.811 2.713c-.033.754-1 2.5-3.115 8.172a.823.823 0 0 0-.021.5 3.867 3.867 0 0 0 .35.778.222.222 0 0 0 .148.1c.146.026.439.077.5.086a1.472 1.472 0 0 1 1.293 1.161 1.6 1.6 0 0 1-.046.56.147.147 0 0 0 .005.055c.035.139.18.711.282 1.169a.184.184 0 0 0 .173.139h2.97a.253.253 0 0 0 .192-.39c-.647-.989-.8-1.231-1.177-1.843a.192.192 0 0 0-.078-.072 5.3 5.3 0 0 1-1.788-1.386 1.688 1.688 0 0 1-.305-1.388 21.943 21.943 0 0 1 3.1-6.5 2.832 2.832 0 0 0 1.114-1.669 5.677 5.677 0 0 0 .146-1.059c.116-.621 1.733-2.7 2.525-3.827-1.095-.38-3.65-1.325-3.939-1.531z"/><path data-name="Tracé 56" d="M245.467 7.732a2.254 2.254 0 0 0-.131-.125.474.474 0 0 1-.189-.342c-.11-.468-.19-.554-.318-.613a1.054 1.054 0 0 0-.577-.174 3.209 3.209 0 0 1-1.505-.151 18.947 18.947 0 0 1-3.626-1.8 1.455 1.455 0 0 0 .383-2.085.457.457 0 0 1-.351.483 1.429 1.429 0 0 0-1.2-1.584.925.925 0 0 1 .258 1.116 1.259 1.259 0 0 0-.913-.813.965.965 0 0 1-1.122 1.395 5.035 5.035 0 0 0-.186-3.018.03.03 0 0 0-.058 0c-.419 1.121-1.187 1.336-1.842 3.014a3.291 3.291 0 0 0-3.19-.628 1.574 1.574 0 0 1 1.074.838c-1.551-.236-2.8-.223-3.844.81a1.879 1.879 0 0 1 1.738.505 4.915 4.915 0 0 1-2.874.61 3.7 3.7 0 0 0 1.828 1.081c-2.105.03-2.049.942-3.443 1.551 1.44-.076 1.476.457 2.474.517-1.659.224-1.762.923-3.63.674a3.445 3.445 0 0 0 1.946 1.468c-1.053.177-1.782.847-2.929.672a3.59 3.59 0 0 0 2.756 1.406 2.936 2.936 0 0 1-1.745.588 2.02 2.02 0 0 0 1.254.534 2.95 2.95 0 0 1-1.96.576 2.564 2.564 0 0 0 2.54 1.224c-.274.838-1.835.732-2.959.293a3.225 3.225 0 0 0 3.2 2.143 4.145 4.145 0 0 1-2.777.39 3.49 3.49 0 0 0 1.889 1.828 34.686 34.686 0 0 1-4.8.911 37.671 37.671 0 0 1-8.08-.742 11.713 11.713 0 0 0-3.9 0 8.591 8.591 0 0 0-3.936 1.781 2.713 2.713 0 0 1-1.2-.642 6.9 6.9 0 0 0-4.12-1.988 6.527 6.527 0 0 0-4.729 2.136 11.4 11.4 0 0 0-2.514 4.408 16.821 16.821 0 0 0-.513 1.965 32.385 32.385 0 0 0-.29 2.057 3.49 3.49 0 0 0 .995-1.063c-.574 2.234-.666 4.687-2.613 6.289 1.331.118 2.158-1.129 2.572-2.024-1 5.775-5.074 7.267-5.851 7.351a6.386 6.386 0 0 0 6.128-3.084 8.557 8.557 0 0 1-2.816 4.259c3.085-.087 4.949-5.857 5.059-6.213a9.681 9.681 0 0 1-.734 3.92c2.638-2.022 2.184-7 3.6-12.266a11.451 11.451 0 0 0 .7 4.555c.224-5.015 1.157-7.1 1.354-7.414.8-1.261 2.493-1.95 3.535-.618a6.84 6.84 0 0 0-.99 2.724 9.075 9.075 0 0 0 2.169 6.8 20.445 20.445 0 0 0 1.855 1.907c.952.879 1.847 1.459 2.333 1.872 1.282 1.088 1.259 2.082.772 2.582a7.806 7.806 0 0 1-1.7 1.273l-.4-.207a.127.127 0 0 1-.029-.2 21.671 21.671 0 0 1 1.713-1.4.358.358 0 0 0 .1-.273 2.027 2.027 0 0 0-.862-1.295c-.155-.133-.368-.29-.615-.476a22.435 22.435 0 0 1-1.915-1.485 9.168 9.168 0 0 1-3.149 5 .2.2 0 0 0-.075.2c.038.23.16.708.238 1.079a.328.328 0 0 0 .272.275c.491.085 1.056.165 1.677.283a7.608 7.608 0 0 0-.195 1.161.3.3 0 0 0 .089.241c.534.508 1.523 1.336 1.878 1.755 1.13 1.342 1.887 1.923 3.6 6.786.072.213.351.244.513.271 1.616.257 1.657 1.581 1.5 1.92a.188.188 0 0 0-.013.1 7.34 7.34 0 0 0 .236 1.051.16.16 0 0 0 .155.114h3.247a.158.158 0 0 0 .134-.238 22.672 22.672 0 0 0-1.285-2.01.193.193 0 0 0-.045-.048c-.342-.24-1.273-.324-1.7-1.1-.216-.39-.087-.548-.062-.9a1.339 1.339 0 0 0-.234-.75 28.853 28.853 0 0 1-3.987-6.707.18.18 0 0 1 .046-.241l.093-.054a15.615 15.615 0 0 1 4.051 3.169.645.645 0 0 0 .631.112 1.5 1.5 0 0 1 1.186.013c.508.3.438.94.079 1.469a.22.22 0 0 0-.039.15c.047.447.079.887.092 1.079a.171.171 0 0 0 .094.143l2.853 1.477a.171.171 0 0 0 .247-.175c-.218-1.649-.353-2.212-.388-2.454a.211.211 0 0 0-.077-.138 1.846 1.846 0 0 1-.828-1.139c-.084-.378-.15-1.22-.529-1.518a39.231 39.231 0 0 0-5.335-3.472c.273-.182.5-.336.642-.434a11.892 11.892 0 0 0 4.286-4.781 7.855 7.855 0 0 0 .669-3.84 5.938 5.938 0 0 0-.909-2.274c-.03-.04.023-.125.127-.05a7.282 7.282 0 0 1 1.6 2.736 30.991 30.991 0 0 0 12.782.966h.029a12.046 12.046 0 0 1-.68-4.6c.016-.206.2-.175.207-.063a11.666 11.666 0 0 0 1.577 5.108 7.106 7.106 0 0 0 1.221.633c4.161 1.785 6.7 2.83 9.34 3.939a.336.336 0 0 1 .236.342 3.913 3.913 0 0 1-.019.779.691.691 0 0 1-.18.381 34.624 34.624 0 0 1-4.763 4.726.713.713 0 0 0-.342.642c.071.444.125.7.141.933a.314.314 0 0 1-.378.359c-.29-.077-.8-.263-1.349-.414a.242.242 0 0 0-.28.124l-1.41 2.849a.18.18 0 0 0 .182.26c.666-.083 1.561-.218 1.994-.317.818-.187.752-.977 2.336-1.263a.908.908 0 0 0 .76-.409c.2-.286.673-1.181 1.033-1.768.417-.681.682-1.07.872-1.322a45.867 45.867 0 0 1 3.822-4.325.848.848 0 0 0 .134-.38c.06-.427.162-1.147.229-1.76a.994.994 0 0 0-.236-.667 5.124 5.124 0 0 0-.539-.641 19.438 19.438 0 0 1-4.5-4.524c3.847-3.937 2.081-6.809.419-10.669-1.179-6.684-3.521-8.221-3.342-12.064 1.34.341 2.365-.376 3.338-.635l2.4-.068a4.39 4.39 0 0 0 .687.589.808.808 0 0 0 .412.051 3.256 3.256 0 0 0 .886-.33l.414-.083a.163.163 0 0 0 .113-.076c.085-.135.287-.456.38-.625a.106.106 0 0 0-.054-.144c-.313-.063-1.011-.178-1.225-.226-.19-.043-.126-.4.037-.4.246.009 1.108.075 1.365.1a.1.1 0 0 0 .1-.055c.063-.13.212-.432.292-.6a.349.349 0 0 0-.075-.397zm-7.646-2.261a.942.942 0 0 0-.528.154 1.6 1.6 0 0 0 .515.493 1.456 1.456 0 0 1-1.11-.584 2.589 2.589 0 0 1 1.189-.529c.587-.009.677.906.677.906s-.473-.451-.743-.44z"/></g><path data-name="Tracé 57" d="M212.348 3.722a1.761 1.761 0 0 0 .378-.177c.1-.04.177-.118.272-.151a.307.307 0 0 0 .133-.071c.069-.091.164 0 .238.025s.2.074.276-.027a.545.545 0 0 1 .226-.189c0 .226.244-.009.348-.025.138-.022.141.116.278.052a.351.351 0 0 0 .221-.256.148.148 0 0 1 .114-.041 1.754 1.754 0 0 0 .381.016 3.663 3.663 0 0 0 .662-.278 3.152 3.152 0 0 1 .7-.082 17.567 17.567 0 0 1 2.95-.209c.216.023.431-.027.649.009a1.828 1.828 0 0 0 .693-.039 2.508 2.508 0 0 1 1-.087.823.823 0 0 1 .326.13c.068.02.11.089.173.133s.106.118.172.146a1.625 1.625 0 0 0 .192.084 1.265 1.265 0 0 0 .308.053c.089.032.313-.1.219-.2a2.543 2.543 0 0 0 .522.129.927.927 0 0 1 .236.038.564.564 0 0 1 .185.119.977.977 0 0 1 .238.433 1.424 1.424 0 0 1 .031.54.522.522 0 0 1-.4.494 3.565 3.565 0 0 1-1.472.019 3.693 3.693 0 0 0-.673-.16c-.247-.036-.5-.04-.745-.053s-.48.021-.717.027a6.431 6.431 0 0 1-.722-.026c-.365-.038-.73-.095-1.1-.125-.309-.021-.647.01-.957.017-.524.019-1.118-.058-1.64-.028-.414.025-2.276-.068-2.357-.068-.028 0-.239.007-.291 0-.094 0-.665.035-.674.035-.062 0-.217.011-.26-.089a.748.748 0 0 1-.113-.118z" fill="#e67b00"/><path data-name="Tracé 58" d="M202.673 8.912c0 .073-.168-.111-.184-.151a1.134 1.134 0 0 0 .341-.167c.116-.057.239-.107.359-.156a1.378 1.378 0 0 0 .249-.155c.081-.054.179-.074.26-.128a.25.25 0 0 1 .266-.056c.1.031.2.078.3.1.263.055.365-.269.586-.369.006.309.278.085.414.014a.546.546 0 0 1 .239-.085c.071.007.1.045.157.094.085.066.069.073.178.017a1 1 0 0 0 .177-.1.489.489 0 0 0 .165-.2c.041-.1.056-.18.2-.167a3.017 3.017 0 0 0 .6.022 6.835 6.835 0 0 0 1.036-.441 4.644 4.644 0 0 1 1.1-.137 28.719 28.719 0 0 1 4.643-.378c.342.026.682-.056 1.026 0a3.479 3.479 0 0 0 1.22-.132 5.7 5.7 0 0 1 1.265-.159 1.559 1.559 0 0 1 1.006.4 1.747 1.747 0 0 0 .448.3 1.767 1.767 0 0 0 .608.094c.06 0 .23-.01.252-.01.041 0 .173-.136.14-.189-.029-.033.06-.065.095-.05a1.872 1.872 0 0 0 .434.113c.165.037.324.017.485.043a1.05 1.05 0 0 1 .382.167 1.343 1.343 0 0 1 .468.726 1.871 1.871 0 0 1 .021.781.879.879 0 0 1-.726.753 5.577 5.577 0 0 1-2.305.026 6.82 6.82 0 0 0-1.067-.235c-.39-.046-.8-.015-1.189-.03-.375-.011-.754.046-1.131.057a9.8 9.8 0 0 1-1.138-.024c-.577-.053-1.156-.13-1.734-.165a13.306 13.306 0 0 0-1.469.021c-.826.035-1.562 0-2.389.056a17.2 17.2 0 0 1-1.913-.006c-.365-.018-.74.013-1.107.013-.262 0-.523-.011-.784-.009-.316 0-.63.01-.945.016a3.274 3.274 0 0 0-.616.022c-.134.031-.358.062-.432-.1" fill="#878787"/><path data-name="Tracé 59" d="M195.974 13.622c.083-.036.173-.1.266-.141a1.677 1.677 0 0 1 .258-.092c.092-.031.185-.06.278-.089s.221-.043.287-.121a.632.632 0 0 1 .163-.072.75.75 0 0 0 .261-.106c.14-.134.379 0 .528.035.165.033.346.12.495-.028a1.2 1.2 0 0 1 .475-.3c0 .1.075.227.135.178a.44.44 0 0 1 .207-.074 1.04 1.04 0 0 1 .5-.135c.04.074.136.063.175.14.027.046.163-.02.206-.039a.718.718 0 0 0 .43-.363.441.441 0 0 1 .244-.051 4.624 4.624 0 0 0 .757.033 9.578 9.578 0 0 0 1.315-.469 7.52 7.52 0 0 1 1.388-.106 46.1 46.1 0 0 1 5.856-.269c.431.036.857-.036 1.29.023a4.863 4.863 0 0 0 1.376-.05c.3-.04.6-.09.9-.1a5.966 5.966 0 0 1 1.091-.011 2.191 2.191 0 0 1 .935.376 2.36 2.36 0 0 0 .909.411 1.884 1.884 0 0 0 .77.028.273.273 0 0 0 .15-.081.187.187 0 0 0 .036-.17c-.005-.011 0-.023.005-.021a6.072 6.072 0 0 0 .633.141c.116.023.234.04.349.052a2 2 0 0 1 .378.038 1.517 1.517 0 0 1 .416.163 1.437 1.437 0 0 1 .52.7 1.666 1.666 0 0 1 .065.812.875.875 0 0 1-.789.735 9.125 9.125 0 0 1-2.921.008 10.029 10.029 0 0 0-1.34-.256c-.493-.057-.985-.069-1.477-.089-.473-.017-.951.026-1.425.03s-.959-.01-1.432-.049c-.729-.065-1.454-.155-2.183-.207a21.85 21.85 0 0 0-1.846-.065c-1.04.016-2.08-.034-3.12 0-.816.026-4.194-.045-4.392-.061a13.511 13.511 0 0 0-1.688-.018c-.222.005-.442.026-.664.037-.169.008-.487.051-.585-.123a1.339 1.339 0 0 1-.185-.184z" fill="#e67b00"/></g></g></svg>