<?xml version="1.0" encoding="utf-8"?>
<!-- Generator: Adobe Illustrator 21.0.0, SVG Export Plug-In . SVG Version: 6.00 Build 0)  -->
<svg version="1.1" id="Calque_1" xmlns="http://www.w3.org/2000/svg" xmlns:xlink="http://www.w3.org/1999/xlink" x="0px" y="0px"
	 viewBox="0 0 314.7 184" style="enable-background:new 0 0 314.7 184;" xml:space="preserve">
<style type="text/css">
	.st0{fill:#878787;}
	.st1{fill:#E67B00;}
	.st2{fill:#622800;}
</style>
<g>
	<g>
		<path class="st0" d="M109,157.3h97.6v2.1H109L109,157.3z"/>
		<g>
			<path class="st1" d="M21.3,137.4c1-0.7,1.6-1.9,1.5-3.1c0-2.6-2.1-4.2-5.5-4.2H5.9v15.3h11.7c3.6,0,5.8-1.7,5.8-4.4
				C23.5,139.4,22.7,138.1,21.3,137.4z M19.2,134.5c0,1.1-0.6,1.6-2.2,1.6H9.5V133H17C18.5,133,19.2,133.5,19.2,134.5L19.2,134.5z
				 M17.3,142.5H9.5v-3.6h7.8c1.7,0,2.4,0.6,2.4,1.8S19,142.5,17.3,142.5L17.3,142.5z"/>
			<path class="st1" d="M84.1,137.6c0-4.4-3.2-7.5-7.9-7.5h-4.1c-4.7,0-7.9,3-7.9,7.5c-0.1,4.2,3.2,7.7,7.4,7.8c0.2,0,0.3,0,0.5,0
				h4.1c1.1,0,2.1-0.2,3.1-0.6l0.7,0.6h4.8l-2.9-2.3C83.3,141.6,84.1,139.6,84.1,137.6L84.1,137.6z M76.2,142.5h-4.1
				c-2.4,0-4.1-2-4.1-4.8c0-2.8,1.7-4.8,4.1-4.8h4.1c2.4,0,4.1,2,4.1,4.8c0,1.2-0.3,2.4-1.1,3.4l-0.8-0.6h-4.4l2.3,2
				C76.4,142.5,76.3,142.5,76.2,142.5L76.2,142.5z"/>
			<path class="st1" d="M272,137.6c0-4.4-3.2-7.5-7.9-7.5H260c-4.7,0-7.9,3-7.9,7.5c-0.1,4.2,3.2,7.7,7.4,7.8c0.2,0,0.3,0,0.5,0h4.1
				c1.1,0,2.1-0.2,3.1-0.6l0.7,0.6h4.8l-2.9-2.3C271.3,141.6,272,139.6,272,137.6z M264.1,142.5H260c-2.4,0-4.1-2-4.1-4.8
				c0-2.8,1.7-4.8,4.1-4.8h4.1c2.4,0,4.1,2,4.1,4.8c0,1.2-0.3,2.4-1.1,3.4l-0.8-0.6H262l2.3,2C264.3,142.5,264.2,142.5,264.1,142.5
				L264.1,142.5z"/>
			<path class="st1" d="M100.3,138.6c0,3-1.6,4.3-5.4,4.3s-5.4-1.2-5.4-4.3v-8.5h-3.6v8.8c0,4.5,3.2,6.9,9,6.9s9-2.4,9-6.9v-8.8
				h-3.6L100.3,138.6z"/>
			<path class="st1" d="M288.2,138.6c0,3-1.6,4.3-5.4,4.3s-5.4-1.2-5.4-4.3v-8.5h-3.6v8.8c0,4.5,3.2,6.9,9,6.9s9-2.4,9-6.9v-8.8
				h-3.6L288.2,138.6z"/>
			<path class="st1" d="M121.9,133v-2.9h-15.6v15.3h15.6v-2.9H110V139h10.6v-2.8H110V133L121.9,133z"/>
			<path class="st1" d="M309.8,133v-2.9h-15.6v15.3h15.6v-2.9h-11.9V139h10.6v-2.8h-10.6V133L309.8,133z"/>
			<path class="st1" d="M167.8,130.1v3h-6.7v12.3h-3.7v-12.3h-6.7v-3H167.8z"/>
			<path class="st1" d="M244.4,130.1v3h-6.7v12.3H234v-12.3h-6.7v-3H244.4z"/>
			<path class="st1" d="M58.8,140.5l-10.3-10.4c-0.4-0.4-0.9-0.6-1.5-0.6c-1,0-1.8,0.7-1.9,1.7c0,0.1,0,0.1,0,0.2v13.9h3.6v-10.5
				l10.3,10.4c0.4,0.3,0.9,0.5,1.5,0.5c1,0,1.8-0.7,1.9-1.7c0-0.1,0-0.1,0-0.2v-13.9h-3.6L58.8,140.5z"/>
			<path class="st1" d="M221.6,140.5l-10.3-10.4c-0.4-0.4-0.9-0.6-1.5-0.6c-1,0-1.8,0.7-1.9,1.7c0,0.1,0,0.1,0,0.2v13.9h3.6v-10.5
				l10.3,10.4c0.4,0.3,0.9,0.5,1.5,0.5c1,0,1.8-0.7,1.9-1.7c0,0,0-0.1,0-0.1v-13.9h-3.6L221.6,140.5z"/>
			<path class="st1" d="M173.7,130.1H170v15.3h15v-3h-11.4V130.1z"/>
			<path class="st1" d="M246.6,130.1h3.7v15.3h-3.7V130.1z"/>
			<path class="st1" d="M33.5,129.6c-0.7,0-1.4,0.4-1.7,1l-8.6,14.8h4l2.2-3.9h8.3l2.2,3.9h4l-8.6-14.8
				C34.9,130,34.3,129.6,33.5,129.6L33.5,129.6z M31,138.6l2.5-4.5l2.5,4.5H31z"/>
			<path class="st1" d="M143.9,129.6c-0.7,0-1.4,0.4-1.7,1l-8.6,14.8h4l2.2-3.9h8.3l2.1,3.9h4l-8.6-14.8
				C145.3,130,144.6,129.6,143.9,129.6L143.9,129.6z M141.4,138.6l2.5-4.5l2.5,4.5H141.4z"/>
			<path class="st1" d="M196.3,129.6c-0.7,0-1.4,0.4-1.7,1l-8.6,14.8h4l2.2-3.9h8.3l2.2,3.9h4l-8.6-14.8
				C197.7,130,197,129.6,196.3,129.6z M193.8,138.6l2.5-4.5l2.5,4.5H193.8z"/>
		</g>
		<g>
			<path class="st0" d="M115.5,170.2c0.1-2-1.5-3.7-3.5-3.7c-0.1,0-0.3,0-0.4,0h-2c-2-0.2-3.8,1.3-3.9,3.3c0,0.1,0,0.3,0,0.4
				c-0.1,2.1,1.6,3.8,3.7,3.9c0.1,0,0.2,0,0.3,0h2c0.5,0,1-0.1,1.5-0.3l0.4,0.3h2.4l-1.5-1.1C115.1,172.3,115.5,171.3,115.5,170.2z
				 M111.6,172.7h-2c-1.3-0.2-2.2-1.4-2-2.7c0.1-1.1,1-1.9,2-2h2c1.2,0,2.1,1,2.1,2.2c0,0.1,0,0.1,0,0.2c0,0.6-0.2,1.2-0.5,1.7
				l-0.4-0.3h-2.2L111.6,172.7C111.6,172.7,111.6,172.7,111.6,172.7z"/>
			<path class="st0" d="M261.4,170.7c0,1.5-0.8,2.1-2.7,2.1s-2.7-0.6-2.7-2.1v-4.2h-1.8v4.4c0,2.2,1.6,3.5,4.5,3.5s4.5-1.2,4.5-3.5
				v-4.4h-1.8V170.7z"/>
			<path class="st0" d="M124,170.7c0,1.5-0.8,2.1-2.7,2.1s-2.7-0.6-2.7-2.1v-4.2h-1.8v4.4c0,2.2,1.6,3.5,4.5,3.5s4.5-1.2,4.5-3.5
				v-4.4H124V170.7z"/>
			<path class="st0" d="M48,170.7c0,1.5-0.8,2.1-2.7,2.1s-2.7-0.6-2.7-2.1v-4.2h-1.8v4.4c0,2.2,1.6,3.5,4.5,3.5s4.5-1.2,4.5-3.5
				v-4.4H48L48,170.7z"/>
			<path class="st0" d="M217.1,167.9v-1.4h-7.8v7.6h7.8v-1.4h-5.9V171h5.3v-1.4h-5.3v-1.6L217.1,167.9z"/>
			<path class="st0" d="M305.8,167.9v-1.4H298v7.6h7.8v-1.4h-5.9V171h5.3v-1.4h-5.3v-1.6L305.8,167.9z"/>
			<path class="st0" d="M157.9,167.9v-1.4h-7.8v7.6h7.8v-1.4h-5.9V171h5.3v-1.4h-5.3v-1.6L157.9,167.9z"/>
			<path class="st0" d="M135.1,167.9v-1.4h-7.8v7.6h7.8v-1.4h-5.9V171h5.3v-1.4h-5.3v-1.6L135.1,167.9z"/>
			<path class="st0" d="M69,167.9v-1.4h-7.8v7.6H69v-1.4h-5.9V171h5.3v-1.4h-5.3v-1.6L69,167.9z"/>
			<path class="st0" d="M239.1,166.5h-2c-2-0.2-3.8,1.3-3.9,3.3c0,0.1,0,0.3,0,0.4c-0.1,2.1,1.6,3.8,3.7,3.9c0.1,0,0.2,0,0.3,0h2
				c2.1,0.1,3.8-1.6,3.9-3.6c0-0.1,0-0.2,0-0.3c0.1-2-1.5-3.7-3.5-3.7C239.4,166.5,239.2,166.5,239.1,166.5z M239.1,172.7h-2
				c-1.3-0.2-2.2-1.4-2-2.7c0.1-1.1,1-1.9,2-2h2c1.3,0.2,2.2,1.4,2,2.7C241,171.7,240.2,172.5,239.1,172.7z"/>
			<path class="st0" d="M35.7,166.5h-2c-2-0.2-3.8,1.3-3.9,3.3c0,0.1,0,0.3,0,0.4c-0.1,2.1,1.6,3.8,3.7,3.9c0.1,0,0.2,0,0.3,0h2
				c2.1,0.1,3.8-1.6,3.9-3.6c0-0.1,0-0.2,0-0.3c0.1-2-1.5-3.7-3.5-3.7C35.9,166.5,35.8,166.5,35.7,166.5z M35.7,172.7h-2
				c-1.3-0.2-2.2-1.4-2-2.7c0.1-1.1,1-1.9,2-2h2c1.3,0.2,2.2,1.4,2,2.7C37.6,171.7,36.7,172.5,35.7,172.7z"/>
			<path class="st0" d="M188.1,169.3c0-1.8-1.3-2.8-3.5-2.8h-5.2v7.6h1.8v-2h3.1l1.9,2h2.3l-2.2-2.2
				C187.4,171.6,188.1,170.5,188.1,169.3L188.1,169.3z M181.1,167.9h3.3c1.2,0,1.8,0.4,1.8,1.4c0,0.9-0.6,1.4-1.8,1.4h-3.3V167.9z"
				/>
			<path class="st0" d="M296.5,169.3c0-1.8-1.3-2.8-3.5-2.8h-5.2v7.6h1.8v-2h3.1l1.9,2h2.3l-2.2-2.2
				C295.8,171.6,296.6,170.5,296.5,169.3z M289.6,167.9h3.3c1.2,0,1.8,0.4,1.8,1.4c0,0.9-0.6,1.4-1.8,1.4h-3.3V167.9z"/>
			<path class="st0" d="M28.5,169.3c0-1.8-1.3-2.8-3.5-2.8h-5.2v7.6h1.8v-2h3.1l1.9,2h2.3l-2.2-2.2
				C27.8,171.6,28.6,170.5,28.5,169.3L28.5,169.3z M21.6,167.9h3.3c1.2,0,1.8,0.4,1.8,1.4c0,0.9-0.6,1.4-1.8,1.4h-3.3V167.9z"/>
			<path class="st0" d="M228.5,166.5h-5.1v7.6h1.8V172h3.3c2.3,0,3.6-1,3.6-2.7C232,167.5,230.7,166.5,228.5,166.5L228.5,166.5z
				 M228.4,170.5h-3.2v-2.6h3.2c1.2,0,1.8,0.4,1.8,1.3S229.6,170.5,228.4,170.5z"/>
			<path class="st0" d="M249.4,166.5h-5.1v7.6h1.8V172h3.3c2.3,0,3.6-1,3.6-2.7C253,167.5,251.7,166.5,249.4,166.5L249.4,166.5z
				 M249.3,170.5h-3.2v-2.6h3.2c1.2,0,1.8,0.4,1.8,1.3S250.6,170.5,249.3,170.5z"/>
			<path class="st0" d="M56.5,166.5h-5.1v7.6h1.8V172h3.3c2.3,0,3.6-1,3.6-2.7S58.7,166.5,56.5,166.5z M56.4,170.5h-3.2v-2.6h3.2
				c1.2,0,1.8,0.4,1.8,1.3S57.6,170.5,56.4,170.5z"/>
			<path class="st0" d="M177.8,166.5v1.5h-3.3v6.1h-1.8V168h-3.3v-1.5H177.8z"/>
			<path class="st0" d="M166.1,171.7l-5.2-5.2c-0.2-0.2-0.5-0.3-0.7-0.3c-0.5,0-0.9,0.4-0.9,0.9c0,0,0,0.1,0,0.1v6.9h1.8v-5.2
				l5.2,5.2c0.2,0.2,0.5,0.3,0.7,0.3c0.5,0,0.9-0.4,0.9-0.9c0,0,0-0.1,0-0.1v-6.9h-1.8V171.7z"/>
			<path class="st0" d="M102.5,171.7l-5.2-5.2c-0.2-0.2-0.5-0.3-0.7-0.3c-0.5,0-0.9,0.4-0.9,0.9c0,0,0,0.1,0,0.1v6.9h1.8v-5.2
				l5.2,5.2c0.2,0.2,0.5,0.3,0.7,0.3c0.5,0,0.9-0.4,0.9-0.9c0,0,0-0.1,0-0.1v-6.9h-1.8L102.5,171.7z"/>
			<path class="st0" d="M148.5,172.7h-4c-1.3-0.2-2.2-1.4-2-2.7c0.1-1.1,1-1.9,2-2h4.1v-1.4h-4.1c-2-0.2-3.8,1.3-3.9,3.3
				c0,0.1,0,0.3,0,0.4c-0.1,2.1,1.6,3.8,3.7,3.9c0.1,0,0.2,0,0.2,0h4.1L148.5,172.7z"/>
			<path class="st0" d="M266.6,166.5h-1.8v7.6h7.5v-1.5h-5.7L266.6,166.5z"/>
			<path class="st0" d="M202.4,166.5h-1.8v7.6h7.5v-1.5h-5.7L202.4,166.5z"/>
			<path class="st0" d="M284.4,166.5h1.9v7.6h-1.9V166.5z"/>
			<path class="st0" d="M89.6,166.3c-0.4,0-0.7,0.2-0.9,0.5l-4.3,7.4h2l1.1-2h4.2l1.1,2h2l-4.3-7.4
				C90.2,166.5,89.9,166.3,89.6,166.3L89.6,166.3z M88.3,170.7l1.2-2.2l1.3,2.2H88.3z"/>
			<path class="st0" d="M194.5,166.3c-0.4,0-0.7,0.2-0.9,0.5l-4.3,7.4h2l1.1-2h4.2l1.1,2h2l-4.3-7.4
				C195.1,166.5,194.8,166.3,194.5,166.3z M193.2,170.7l1.3-2.2l1.3,2.2H193.2z"/>
			<path class="st0" d="M278.2,166.3c-0.4,0-0.7,0.2-0.9,0.5l-4.3,7.4h2l1.1-2h4.2l1.1,2h2l-4.3-7.4
				C278.9,166.5,278.6,166.3,278.2,166.3L278.2,166.3z M277,170.7l1.2-2.2l1.3,2.2H277z"/>
			<path class="st0" d="M16.7,170.3v2.4h-2.8c-1.3-0.2-2.2-1.4-2-2.7c0.1-1.1,1-1.9,2-2h4.3v-1.4h-4.3c-2-0.2-3.8,1.3-3.9,3.3
				c0,0.1,0,0.3,0,0.4c-0.1,2.1,1.6,3.8,3.7,3.9c0.1,0,0.2,0,0.3,0h4.7v-3.8L16.7,170.3z"/>
			<path class="st0" d="M83.1,170.1c0.5-0.4,0.8-1,0.7-1.6c0-1.3-1-2.1-2.8-2.1h-5.7v7.6h5.8c1.8,0,2.9-0.8,2.9-2.2
				C84.1,171.2,83.7,170.5,83.1,170.1L83.1,170.1z M82,168.7c0,0.6-0.3,0.8-1.1,0.8h-3.7v-1.6h3.7C81.7,167.9,82,168.2,82,168.7
				L82,168.7z M81.1,172.7h-3.9v-1.8h3.9c0.8,0,1.2,0.3,1.2,0.9C82.3,172.4,81.9,172.7,81.1,172.7L81.1,172.7z"/>
		</g>
	</g>
	<g>
		<g>
			<path class="st2" d="M185.6,70.7c-0.8,2.2-2,5.2-2.7,7.6c-1,1.4-1.5,3.1-1.5,4.9c-0.1,1.4-1.8,4.5-5.6,14.7
				c-0.1,0.3-0.1,0.6,0,0.9c0.2,0.5,0.4,1,0.6,1.4c0.1,0.1,0.2,0.2,0.3,0.2c0.3,0,0.8,0.1,0.9,0.2c1.1,0.1,2.1,1,2.3,2.1
				c0,0.3,0,0.7-0.1,1c0,0,0,0.1,0,0.1c0.1,0.2,0.3,1.3,0.5,2.1c0,0.1,0.2,0.2,0.3,0.3h5.3c0.3,0,0.4-0.2,0.4-0.5
				c0-0.1,0-0.1-0.1-0.2c-0.7-1.1-1.4-2.2-2.1-3.3c0-0.1-0.1-0.1-0.1-0.1c-1.2-0.6-2.3-1.4-3.2-2.5c-0.5-0.7-0.7-1.6-0.5-2.5
				c0.4-2.8,4.6-10.9,5.6-11.7c1-0.7,1.7-1.8,2-3c0.1-0.6,0.2-1.3,0.3-1.9c0.2-1.1,3.1-4.9,4.5-6.9
				C190.7,72.8,186.1,71.1,185.6,70.7L185.6,70.7z"/>
			<path class="st2" d="M210.8,19.7c-0.1-0.1-0.2-0.2-0.2-0.2c-0.2-0.1-0.3-0.4-0.3-0.6c-0.2-0.8-0.3-1-0.6-1.1
				c-0.3-0.2-0.7-0.3-1-0.3c-0.9,0.1-1.8,0-2.7-0.3c-2.3-0.8-4.5-1.9-6.5-3.2c1.2-0.8,1.6-2.4,0.8-3.6c0,0-0.1-0.1-0.1-0.1
				c0,0.4-0.2,0.8-0.6,0.9c0.2-1.4-0.8-2.6-2.1-2.8c0.6,0.5,0.8,1.3,0.5,2c-0.3-0.7-0.9-1.3-1.6-1.5c0.5,0.8,0.2,1.9-0.7,2.4
				c-0.4,0.2-0.9,0.3-1.3,0.1c0.6-1.5,0.2-3.6-0.3-5.4c0,0,0,0-0.1,0c0,0,0,0,0,0c-0.8,2-2.1,2.4-3.3,5.4c-0.7-0.5-3-2.3-5.7-1.1
				c0.8,0.2,1.6,0.7,1.9,1.5c-2.8-0.4-5-0.4-6.9,1.5c1.1-0.3,2.3,0.1,3.1,0.9c-1.3,0.8-2.7,1.1-5.2,1.1c0.9,1,2,1.6,3.3,1.9
				c-3.8,0.1-3.7,1.7-6.2,2.8c2.6-0.1,2.7,0.8,4.4,0.9c-3,0.4-3.2,1.7-6.5,1.2c0.8,1.3,2.1,2.2,3.5,2.6c-1.9,0.3-3.2,1.5-5.3,1.2
				c0.9,1.5,3.1,2.4,5,2.5c-0.9,0.7-2,1.1-3.1,1.1c0.6,0.6,1.4,0.9,2.3,1c-1,0.8-2.3,1.1-3.5,1c0.9,1.6,2.7,2.4,4.6,2.2
				c-0.5,1.5-3.3,1.3-5.3,0.5c0.9,2.4,3.2,4,5.8,3.9c-1.4,0.9-3,0.9-5,0.7c0.7,1.5,1.9,2.7,3.4,3.3c-2.8,0.7-5.7,1.3-8.6,1.6
				c-4.9,0.1-9.8-0.4-14.5-1.3c-2.3-0.4-4.7-0.4-7,0c-2.6,0.4-5,1.5-7.1,3.2c-0.8-0.2-1.5-0.6-2.2-1.2c-2.1-1.8-4.6-3.5-7.4-3.6
				c-3.2,0.1-6.3,1.4-8.5,3.8c-2.1,2.3-3.6,5-4.5,7.9c-0.4,1.2-0.7,2.3-0.9,3.5c-0.1,0.6-0.4,2.7-0.5,3.7c0.7-0.5,1.3-1.2,1.8-1.9
				c-1,4-1.2,8.4-4.7,11.3c2.4,0.2,3.9-2,4.6-3.6c-1.8,10.4-9.1,13.1-10.5,13.2c4.4,0.4,8.7-1.7,11-5.5c-0.9,3-2.6,5.7-5.1,7.7
				c5.5-0.2,8.9-10.5,9.1-11.2c0,0.7,0.2,2.3-1.3,7.1c4.7-3.6,3.9-12.6,6.5-22.1c-0.1,0.9,0,5.6,1.3,8.2c0.4-9,2.1-12.8,2.4-13.3
				c1.4-2.3,4.5-3.5,6.4-1.1c-0.9,1.5-1.5,3.2-1.8,4.9c-0.4,4.4,1,8.9,3.9,12.2c1,1.2,2.2,2.4,3.3,3.4c1.7,1.6,3.3,2.6,4.2,3.4
				c2.3,2,2.3,3.7,1.4,4.6c-0.9,0.9-1.9,1.7-3,2.3c-0.2-0.1-0.5-0.2-0.7-0.4c-0.1-0.1-0.2-0.2-0.1-0.3c0,0,0,0,0-0.1
				c1-0.9,2-1.7,3.1-2.5c0.1-0.1,0.2-0.3,0.2-0.5c-0.2-1-0.7-1.8-1.6-2.3c-0.3-0.2-0.7-0.5-1.1-0.9c-1.2-0.8-2.3-1.7-3.4-2.7
				c-1.7,5.9-4.9,8.5-5.7,9c-0.1,0.1-0.2,0.2-0.1,0.4c0.1,0.4,0.3,1.3,0.4,1.9c0,0.3,0.2,0.5,0.5,0.5c0.9,0.2,1.9,0.3,3,0.5
				c-0.2,0.7-0.3,1.4-0.3,2.1c0,0.2,0,0.3,0.2,0.4c1,0.9,2.7,2.4,3.4,3.2c2,2.4,3.4,3.5,6.5,12.2c0.1,0.4,0.6,0.4,0.9,0.5
				c2.9,0.5,3,2.8,2.7,3.5c0,0.1,0,0.1,0,0.2c0.1,0.6,0.2,1.3,0.4,1.9c0,0.1,0.2,0.2,0.3,0.2h5.8c0.2,0,0.3-0.1,0.3-0.3
				c0,0,0-0.1,0-0.1c-0.7-1.2-1.5-2.5-2.3-3.6c0,0,0-0.1-0.1-0.1c-0.6-0.4-2.3-0.6-3.1-2c-0.4-0.7-0.2-1-0.1-1.6
				c0-0.5-0.1-1-0.4-1.3c-3.8-4.3-6.5-10.6-7.2-12.1c-0.1-0.1-0.1-0.3,0.1-0.4l0.2-0.1c2.7,1.5,5.2,3.4,7.3,5.7
				c0.3,0.3,0.7,0.3,1.1,0.2c0.7-0.3,1.5-0.3,2.1,0c0.9,0.5,0.8,1.7,0.1,2.6c-0.1,0.1-0.1,0.2-0.1,0.3c0.1,0.8,0.1,1.6,0.2,1.9
				c0,0.1,0.1,0.2,0.2,0.3l5.1,2.7c0.2,0.1,0.3,0,0.4-0.1c0-0.1,0-0.1,0-0.2c-0.4-3-0.6-4-0.7-4.4c0-0.1-0.1-0.2-0.1-0.2
				c-0.7-0.5-1.3-1.2-1.5-2c-0.2-0.7-0.3-2.2-1-2.7c-3-2.3-6.2-4.4-9.6-6.2c0.5-0.3,0.9-0.6,1.2-0.8c3.3-2.1,6-5.1,7.7-8.6
				c1-2.2,1.4-4.5,1.2-6.9c-0.3-1.5-0.8-2.9-1.6-4.1c-0.1-0.1,0-0.2,0.2-0.1c1.4,1,2.6,4.2,2.9,4.9c5.5,1.9,16.2,2.9,23,1.7h0.1
				c-0.9-2.7-1.4-5.5-1.2-8.3c0-0.4,0.4-0.3,0.4-0.1c0.2,3.2,1.2,6.4,2.8,9.2c0.7,0.4,1.4,0.8,2.2,1.1c7.5,3.2,12,5.1,16.8,7.1
				c0.3,0.1,0.4,0.3,0.4,0.6c0,0.5,0,0.9,0,1.4c0,0.3-0.1,0.5-0.3,0.7c-2.6,3.1-5.4,6-8.6,8.5c-0.4,0.2-0.6,0.7-0.6,1.2
				c0.1,0.8,0.2,1.3,0.3,1.7c0.1,0.3-0.2,0.6-0.5,0.7c-0.1,0-0.1,0-0.2,0c-0.5-0.1-1.4-0.5-2.4-0.7c-0.2-0.1-0.4,0-0.5,0.2l-2.5,5.1
				c-0.1,0.2,0,0.4,0.1,0.4c0.1,0,0.1,0,0.2,0c1.2-0.1,2.8-0.4,3.6-0.6c1.5-0.3,1.4-1.8,4.2-2.3c0.6,0,1.1-0.3,1.4-0.7
				c0.4-0.5,1.2-2.1,1.9-3.2c0.8-1.2,1.2-1.9,1.6-2.4c1.8-2.4,2.1-2.6,6.9-7.8c0.1-0.2,0.2-0.4,0.2-0.7c0.1-0.8,0.3-2.1,0.4-3.2
				c0-0.4-0.1-0.9-0.4-1.2c-0.3-0.4-0.6-0.8-1-1.2c-4.2-2.6-8.1-8.1-8.1-8.1c6.9-7.1,3.7-12.2,0.8-19.2c-2.1-12-6.3-14.8-6-21.7
				c2.4,0.6,4.3-0.7,6-1.1l4.3-0.1c0.4,0.4,0.8,0.7,1.2,1.1c0.2,0.1,0.5,0.1,0.7,0.1c0.6-0.1,1.1-0.3,1.6-0.6l0.7-0.1
				c0.1,0,0.2-0.1,0.2-0.1c0.2-0.2,0.5-0.8,0.7-1.1c0.1-0.1,0-0.2-0.1-0.3c0,0,0,0-0.1,0c-0.6-0.1-1.8-0.3-2.2-0.4
				c-0.3-0.1-0.2-0.7,0.1-0.7c0.4,0,2,0.1,2.5,0.2c0.1,0,0.1,0,0.2-0.1l0.5-1.1C211,20.2,211,19.9,210.8,19.7L210.8,19.7z M197,15.6
				c-0.3,0-0.7,0.1-0.9,0.3c0.2,0.4,0.6,0.7,0.9,0.9c-0.8,0-1.5-0.4-2-1.1c0.6-0.5,1.4-0.8,2.1-1c1.1,0,1.2,1.6,1.2,1.6
				S197.5,15.6,197,15.6L197,15.6z"/>
		</g>
		<path class="st1" d="M151.2,12.5c0.2-0.1,0.5-0.2,0.7-0.3c0.2-0.1,0.3-0.2,0.5-0.3c0.1,0,0.2-0.1,0.2-0.1c0.1-0.2,0.3,0,0.4,0
			c0.2,0,0.4,0.1,0.5,0c0.1-0.1,0.2-0.3,0.4-0.3c0,0.4,0.4,0,0.6,0c0.2,0,0.3,0.2,0.5,0.1c0.2-0.1,0.4-0.2,0.4-0.5
			c0.1-0.1,0.1-0.1,0.2-0.1c0.2,0,0.5,0,0.7,0c0.4-0.1,0.8-0.3,1.2-0.5c0.4-0.1,0.8-0.1,1.3-0.1c1.8-0.3,3.5-0.4,5.3-0.4
			c0.4,0,0.8,0,1.2,0c0.4,0.1,0.8,0,1.2-0.1c0.6-0.2,1.2-0.2,1.8-0.2c0.2,0,0.4,0.1,0.6,0.2c0.1,0,0.2,0.2,0.3,0.2s0.2,0.2,0.3,0.3
			c0.1,0.1,0.2,0.1,0.3,0.2c0.2,0.1,0.4,0.1,0.6,0.1c0.2,0.1,0.6-0.2,0.4-0.4c0.3,0.1,0.6,0.2,0.9,0.2c0.1,0,0.3,0,0.4,0.1
			c0.1,0,0.2,0.1,0.3,0.2c0.2,0.2,0.4,0.5,0.4,0.8c0.1,0.3,0.1,0.6,0.1,1c0,0.4-0.3,0.8-0.7,0.9c-0.9,0.2-1.8,0.2-2.6,0
			c-0.4-0.1-0.8-0.2-1.2-0.3c-0.4-0.1-0.9-0.1-1.3-0.1c-0.4,0-0.9,0-1.3,0c-0.4,0-0.9,0-1.3,0c-0.7-0.1-1.3-0.2-2-0.2
			c-0.6,0-1.2,0-1.7,0c-0.9,0-2-0.1-3-0.1c-0.7,0-4.1-0.1-4.2-0.1c-0.1,0-0.4,0-0.5,0c-0.2,0-1.2,0.1-1.2,0.1c-0.1,0-0.4,0-0.5-0.2
			C151.4,12.6,151.3,12.5,151.2,12.5z"/>
		<path class="st0" d="M133.8,21.8c0,0.1-0.3-0.2-0.3-0.3c0.2-0.1,0.4-0.2,0.6-0.3c0.2-0.1,0.4-0.2,0.6-0.3c0.2-0.1,0.3-0.2,0.4-0.3
			c0.1-0.1,0.3-0.1,0.5-0.2c0.1-0.1,0.3-0.2,0.5-0.1c0.2,0.1,0.4,0.1,0.5,0.2c0.5,0.1,0.7-0.5,1.1-0.7c0,0.6,0.5,0.2,0.7,0
			c0.1-0.1,0.3-0.1,0.4-0.2c0.1,0,0.2,0.1,0.3,0.2c0.2,0.1,0.1,0.1,0.3,0c0.1-0.1,0.2-0.1,0.3-0.2c0.1-0.1,0.2-0.2,0.3-0.4
			c0.1-0.2,0.1-0.3,0.4-0.3c0.4,0,0.7,0.1,1.1,0c0.6-0.2,1.3-0.5,1.9-0.8c0.6-0.2,1.3-0.2,2-0.2c2.8-0.2,5.6-0.9,8.4-0.7
			c0.6,0,1.2-0.1,1.8,0c0.7,0.1,1.5,0,2.2-0.2c0.7-0.2,1.5-0.3,2.3-0.3c0.7,0,1.3,0.3,1.8,0.7c0.2,0.2,0.5,0.4,0.8,0.5
			c0.4,0.1,0.7,0.2,1.1,0.2c0.1,0,0.4,0,0.5,0c0.1,0,0.3-0.2,0.3-0.3c-0.1-0.1,0.1-0.1,0.2-0.1c0.3,0.1,0.5,0.2,0.8,0.2
			c0.3,0.1,0.6,0,0.9,0.1c0.2,0.1,0.5,0.2,0.7,0.3c0.4,0.3,0.7,0.8,0.8,1.3c0.1,0.5,0.1,0.9,0,1.4c-0.1,0.7-0.6,1.2-1.3,1.4
			c-1.4,0.3-2.8,0.3-4.1,0c-0.6-0.2-1.3-0.3-1.9-0.4c-0.7-0.1-1.4,0-2.1-0.1c-0.7,0-1.4,0.1-2,0.1c-0.7,0-1.4,0-2,0
			c-1-0.1-2.1-0.2-3.1-0.3c-0.9,0-1.8,0-2.6,0c-1.5,0.1-2.8,0-4.3,0.1c-1.1,0.1-2.3,0.1-3.4,0c-0.7,0-1.3,0-2,0c-0.5,0-0.9,0-1.4,0
			c-0.6,0-1.1,0-1.7,0c-0.4,0-0.7,0-1.1,0C134.4,22.1,134,22.1,133.8,21.8"/>
		<path class="st1" d="M121.8,30.3c0.1-0.1,0.3-0.2,0.5-0.3c0.1-0.1,0.3-0.1,0.5-0.2c0.2-0.1,0.3-0.1,0.5-0.2
			c0.1-0.1,0.4-0.1,0.5-0.2c0.1-0.1,0.2-0.1,0.3-0.1c0.2,0,0.3-0.1,0.5-0.2c0.3-0.2,0.7,0,1,0.1c0.3,0.1,0.6,0.2,0.9-0.1
			c0.2-0.2,0.5-0.4,0.9-0.5c0,0.2,0.1,0.4,0.2,0.3c0.1-0.1,0.2-0.1,0.4-0.1c0.3-0.2,0.6-0.2,0.9-0.2c0.1,0.1,0.2,0.1,0.3,0.3
			c0,0.1,0.3,0,0.4-0.1c0.3-0.1,0.6-0.3,0.8-0.7c0.1-0.1,0.3-0.1,0.4-0.1c0.5,0.1,0.9,0.1,1.4,0.1c0.8-0.2,1.6-0.5,2.4-0.8
			c0.8-0.1,1.7-0.2,2.5-0.2c3.5-0.2,7-0.7,10.5-0.5c0.8,0.1,1.5-0.1,2.3,0c0.8,0.1,1.7,0.1,2.5-0.1c0.5-0.1,1.1-0.2,1.6-0.2
			c0.7-0.1,1.3-0.1,2,0c0.6,0.1,1.2,0.3,1.7,0.7c0.5,0.4,1,0.6,1.6,0.7c0.5,0.1,0.9,0.1,1.4,0c0.1,0,0.2-0.1,0.3-0.1
			c0.1-0.1,0.1-0.2,0.1-0.3c0,0,0,0,0,0c0.4,0.1,0.8,0.2,1.1,0.3c0.2,0,0.4,0.1,0.6,0.1c0.2,0,0.5,0,0.7,0.1
			c0.3,0.1,0.5,0.2,0.7,0.3c0.4,0.3,0.8,0.8,0.9,1.3c0.2,0.5,0.2,1,0.1,1.5c-0.1,0.7-0.7,1.3-1.4,1.3c-1.7,0.3-3.5,0.3-5.3,0
			c-0.8-0.2-1.6-0.4-2.4-0.5c-0.9-0.1-1.8-0.1-2.7-0.2c-0.8,0-1.7,0-2.6,0.1c-0.9,0-1.7,0-2.6-0.1c-1.3-0.1-2.6-0.3-3.9-0.4
			c-1.1-0.1-2.2-0.1-3.3-0.1c-1.9,0-3.7-0.1-5.6,0c-1.5,0-7.5-0.1-7.9-0.1c-1-0.1-2-0.1-3,0c-0.4,0-0.8,0-1.2,0.1
			c-0.3,0-0.9,0.1-1.1-0.2C122,30.5,121.9,30.4,121.8,30.3z"/>
	</g>
</g>
</svg>
